solid Default
  facet normal 0.000000e+00 0.000000e+00 -1.000000e+00
    outer loop
      vertex 2.545584e+01 3.111270e+01 0.000000e+00
      vertex 3.111270e+01 2.545584e+01 0.000000e+00
      vertex -2.545585e+01 -3.111270e+01 0.000000e+00
    endloop
  endfacet
  facet normal 0.000000e+00 0.000000e+00 -1.000000e+00
    outer loop
      vertex 2.545584e+01 3.111270e+01 0.000000e+00
      vertex -2.545585e+01 -3.111270e+01 0.000000e+00
      vertex -3.111269e+01 -2.545583e+01 0.000000e+00
    endloop
  endfacet
  facet normal 0.000000e+00 0.000000e+00 1.000000e+00
    outer loop
      vertex 2.545586e+01 3.111271e+01 8.000000e+00
      vertex -3.111270e+01 -2.545584e+01 8.000000e+00
      vertex -2.545586e+01 -3.111271e+01 8.000000e+00
    endloop
  endfacet
  facet normal 0.000000e+00 0.000000e+00 1.000000e+00
    outer loop
      vertex 2.545586e+01 3.111271e+01 8.000000e+00
      vertex -2.545586e+01 -3.111271e+01 8.000000e+00
      vertex 3.111268e+01 2.545582e+01 8.000000e+00
    endloop
  endfacet
  facet normal 7.071106e-01 7.071030e-01 -2.360224e-06
    outer loop
      vertex 2.545584e+01 3.111270e+01 0.000000e+00
      vertex 2.545586e+01 3.111271e+01 8.000000e+00
      vertex 3.111268e+01 2.545582e+01 8.000000e+00
    endloop
  endfacet
  facet normal 7.071068e-01 7.071068e-01 3.034573e-06
    outer loop
      vertex 2.545584e+01 3.111270e+01 0.000000e+00
      vertex 3.111268e+01 2.545582e+01 8.000000e+00
      vertex 3.111270e+01 2.545584e+01 0.000000e+00
    endloop
  endfacet
  facet normal 7.071068e-01 -7.071068e-01 -3.371749e-07
    outer loop
      vertex 3.111270e+01 2.545584e+01 0.000000e+00
      vertex 3.111268e+01 2.545582e+01 8.000000e+00
      vertex -2.545586e+01 -3.111271e+01 8.000000e+00
    endloop
  endfacet
  facet normal 7.071068e-01 -7.071068e-01 0.000000e+00
    outer loop
      vertex 3.111270e+01 2.545584e+01 0.000000e+00
      vertex -2.545586e+01 -3.111271e+01 8.000000e+00
      vertex -2.545585e+01 -3.111270e+01 0.000000e+00
    endloop
  endfacet
  facet normal -7.071084e-01 -7.071051e-01 -1.348699e-06
    outer loop
      vertex -2.545585e+01 -3.111270e+01 0.000000e+00
      vertex -2.545586e+01 -3.111271e+01 8.000000e+00
      vertex -3.111270e+01 -2.545584e+01 8.000000e+00
    endloop
  endfacet
  facet normal -7.071084e-01 -7.071051e-01 -1.348698e-06
    outer loop
      vertex -2.545585e+01 -3.111270e+01 0.000000e+00
      vertex -3.111270e+01 -2.545584e+01 8.000000e+00
      vertex -3.111269e+01 -2.545583e+01 0.000000e+00
    endloop
  endfacet
  facet normal -7.071068e-01 7.071068e-01 -7.958081e-14
    outer loop
      vertex 2.545586e+01 3.111271e+01 8.000000e+00
      vertex 2.545584e+01 3.111270e+01 0.000000e+00
      vertex -3.111269e+01 -2.545583e+01 0.000000e+00
    endloop
  endfacet
  facet normal -7.071068e-01 7.071068e-01 3.371748e-07
    outer loop
      vertex 2.545586e+01 3.111271e+01 8.000000e+00
      vertex -3.111269e+01 -2.545583e+01 0.000000e+00
      vertex -3.111270e+01 -2.545584e+01 8.000000e+00
    endloop
  endfacet
endsolid Default
